<svg xmlns="http://www.w3.org/2000/svg" xmlns:xlink="http://www.w3.org/1999/xlink" width="500" zoomAndPan="magnify" viewBox="0 0 375 374.999991" height="500" preserveAspectRatio="xMidYMid meet" version="1.0"><defs><clipPath id="fbb9880293"><path d="M 89 122 L 271 122 L 271 266 L 89 266 Z M 89 122 " clip-rule="nonzero"/></clipPath><clipPath id="2ac24d1d62"><path d="M 254.320312 106.203125 L 283.210938 244.976562 L 104.054688 282.277344 L 75.160156 143.503906 Z M 254.320312 106.203125 " clip-rule="nonzero"/></clipPath><clipPath id="c79340859b"><path d="M 254.320312 106.203125 L 283.210938 244.976562 L 104.054688 282.277344 L 75.160156 143.503906 Z M 254.320312 106.203125 " clip-rule="nonzero"/></clipPath><clipPath id="815b3aef08"><path d="M 254.320312 106.203125 L 283.210938 244.976562 L 104.054688 282.277344 L 75.160156 143.503906 Z M 254.320312 106.203125 " clip-rule="nonzero"/></clipPath><clipPath id="93369f613f"><path d="M 144 141 L 249 141 L 249 292 L 144 292 Z M 144 141 " clip-rule="nonzero"/></clipPath><clipPath id="2aa8c402d9"><path d="M 185.476562 138.636719 L 251.6875 160.566406 L 206.410156 297.261719 L 140.195312 275.332031 Z M 185.476562 138.636719 " clip-rule="nonzero"/></clipPath><clipPath id="2066467fbc"><path d="M 185.476562 138.636719 L 251.6875 160.566406 L 206.410156 297.261719 L 140.195312 275.332031 Z M 185.476562 138.636719 " clip-rule="nonzero"/></clipPath></defs><g clip-path="url(#fbb9880293)"><g clip-path="url(#2ac24d1d62)"><g clip-path="url(#c79340859b)"><g clip-path="url(#815b3aef08)"><path fill="#ffffff" d="M 268.167969 173.964844 C 266.136719 166.375 262.304688 159.386719 258.390625 152.527344 C 251.765625 140.816406 243.574219 128.640625 230.820312 124.410156 C 221.242188 121.328125 210.789062 123.277344 201.082031 126.089844 C 191.371094 128.898438 181.714844 132.492188 171.660156 132.550781 C 163.753906 132.617188 156.183594 130.472656 148.320312 130.191406 C 140.910156 129.925781 133.515625 131.351562 126.34375 133.296875 C 120.230469 134.910156 114.015625 137.105469 109.09375 141.175781 C 104.585938 145.050781 101.386719 150.34375 98.886719 155.714844 C 93.5 167.332031 90.46875 179.925781 89.628906 192.742188 C 89.046875 201.890625 89.550781 211.378906 92.699219 219.976562 C 96.886719 231.40625 105.296875 240.828125 114.710938 248.570312 C 121.792969 254.320312 129.515625 259.371094 138.269531 262.289062 C 146.171875 264.929688 154.472656 265.683594 162.855469 265.746094 C 181.097656 265.898438 199.703125 262.363281 215.820312 253.929688 C 227.242188 247.941406 237.191406 239.773438 247.140625 231.609375 C 256.121094 224.210938 265.015625 214.230469 266.792969 208.105469 C 270.820312 194.855469 272.132812 193 268.167969 173.964844 Z M 268.167969 173.964844 " fill-opacity="1" fill-rule="nonzero"/></g></g></g></g><g clip-path="url(#93369f613f)"><g clip-path="url(#2aa8c402d9)"><g clip-path="url(#2066467fbc)"><path fill="#ff9935" d="M 191.082031 167.546875 C 192.570312 164.296875 194.257812 161.136719 195.890625 157.957031 C 196.65625 156.457031 197.429688 154.960938 198.136719 153.429688 C 199.023438 151.527344 199.996094 149.535156 200.371094 147.453125 C 200.523438 146.605469 201.105469 145.875 202.050781 145.933594 C 202.835938 145.980469 203.714844 146.753906 203.566406 147.613281 C 202.855469 151.589844 200.824219 155.273438 199.007812 158.839844 C 197.371094 162.070312 195.632812 165.257812 194.121094 168.554688 C 193.765625 169.335938 192.996094 169.875 192.101562 169.570312 C 191.34375 169.3125 190.722656 168.339844 191.082031 167.546875 Z M 204 173.0625 C 207.847656 166.757812 211.035156 160.050781 213.480469 153.078125 C 214.164062 151.128906 211.128906 150.125 210.445312 152.074219 C 208.085938 158.789062 205.046875 165.214844 201.34375 171.289062 C 200.273438 173.050781 202.929688 174.832031 204 173.0625 Z M 221.824219 155.847656 C 218.378906 162.054688 215.113281 168.433594 211.304688 174.425781 C 208.355469 179.050781 204.78125 183.945312 199.554688 186.105469 C 197.742188 186.855469 195.769531 187.238281 193.804688 187.15625 C 191.03125 187.035156 188.964844 185.066406 187.316406 182.976562 C 183.65625 178.328125 184.382812 171.394531 185.335938 165.9375 C 186.679688 158.320312 189.746094 151.042969 193.429688 144.285156 C 194.40625 142.484375 191.761719 140.695312 190.773438 142.503906 C 187.105469 149.230469 184.035156 156.363281 182.503906 163.894531 C 181.285156 169.902344 180.257812 177.683594 183.613281 183.21875 C 184.789062 185.160156 186.414062 187.109375 188.335938 188.488281 C 184.097656 198.023438 179.988281 207.632812 175.367188 216.992188 C 172.15625 215.621094 168.675781 215.558594 165.875 218.007812 C 164.609375 219.109375 163.921875 220.53125 163.246094 222.011719 C 159.050781 231.199219 154.859375 240.394531 150.664062 249.582031 C 148.921875 253.394531 147.191406 257.199219 145.449219 261.007812 C 144.769531 262.5 144.199219 263.96875 144.257812 265.667969 C 144.328125 267.6875 145.121094 269.695312 146.53125 271.160156 C 147.582031 272.25 148.871094 272.878906 150.222656 273.5 C 151.222656 273.960938 152.21875 274.410156 153.21875 274.867188 C 157.160156 276.542969 161.90625 274.917969 163.878906 271.066406 C 164.28125 270.269531 164.640625 269.441406 165.007812 268.625 C 166.90625 264.472656 168.800781 260.308594 170.703125 256.152344 C 174.707031 247.386719 178.730469 238.628906 182.707031 229.851562 C 183.703125 227.660156 183.902344 225.292969 183.019531 223.011719 C 182.09375 220.636719 180.289062 219.355469 178.25 218.320312 C 182.835938 208.996094 186.949219 199.449219 191.164062 189.957031 C 193.3125 190.628906 195.789062 190.425781 197.929688 189.972656 C 203.542969 188.792969 207.710938 184.722656 211.09375 180.324219 C 213.65625 176.988281 215.746094 173.324219 217.789062 169.660156 C 220.023438 165.644531 222.253906 161.628906 224.484375 157.621094 C 225.484375 155.832031 222.828125 154.042969 221.824219 155.847656 Z M 246.945312 173.917969 C 245.335938 177.855469 243.390625 181.671875 241.582031 185.527344 C 238.296875 192.527344 235.003906 199.53125 231.722656 206.527344 C 229.023438 212.277344 226.113281 217.964844 223.625 223.804688 C 221.496094 228.804688 219.433594 233.835938 217.339844 238.855469 C 217.511719 239.101562 217.675781 239.351562 217.8125 239.636719 C 218.828125 241.703125 218.625 243.9375 217.695312 245.972656 C 213.691406 254.746094 209.683594 263.523438 205.683594 272.300781 C 203.722656 276.59375 201.765625 280.878906 199.8125 285.171875 C 199.429688 286.007812 199.0625 286.84375 198.671875 287.667969 C 197.046875 291.117188 193.1875 292.859375 189.582031 291.359375 C 188.601562 290.914062 187.628906 290.464844 186.644531 290.019531 C 185.527344 289.507812 184.277344 289.054688 183.308594 288.277344 C 181.703125 286.980469 180.742188 285.042969 180.703125 282.976562 C 180.675781 281.480469 181.21875 280.242188 181.816406 278.933594 C 183.558594 275.117188 185.300781 271.308594 187.039062 267.488281 C 191.316406 258.117188 195.589844 248.742188 199.867188 239.367188 C 200.300781 238.425781 200.695312 237.347656 201.300781 236.511719 C 202.519531 234.839844 204.410156 233.785156 206.472656 233.644531 C 206.824219 233.617188 207.164062 233.632812 207.496094 233.667969 C 208.460938 231.410156 209.421875 229.148438 210.386719 226.886719 C 208.914062 226.25 207.433594 225.609375 205.960938 224.980469 C 205.199219 224.652344 204.617188 223.816406 204.945312 222.957031 C 207.292969 216.863281 209.652344 210.777344 212.257812 204.789062 C 216.828125 194.296875 222.175781 184.019531 229.398438 175.085938 C 232.515625 171.238281 235.933594 167.195312 240.417969 164.910156 C 242.21875 163.992188 245.304688 162.675781 247.335938 163.429688 C 248.535156 163.871094 248.84375 164.890625 248.605469 165.769531 C 248.628906 165.824219 248.667969 165.871094 248.695312 165.925781 C 249.039062 166.6875 248.800781 167.476562 248.660156 168.261719 C 248.300781 170.207031 247.691406 172.089844 246.945312 173.917969 Z M 245.335938 168.652344 C 245.460938 168.148438 245.523438 167.621094 245.636719 167.113281 C 245.628906 167.160156 245.9375 167.585938 245.707031 167.148438 C 245.582031 166.914062 245.429688 166.699219 245.285156 166.476562 C 244.429688 166.652344 243.289062 167.128906 242.917969 167.28125 C 241.953125 167.683594 241.019531 168.183594 240.15625 168.769531 C 238.316406 170.011719 236.703125 171.589844 235.207031 173.214844 C 222.351562 187.128906 215.234375 205.160156 208.507812 222.597656 C 210 223.242188 211.492188 223.886719 212.976562 224.53125 C 213.71875 224.847656 214.355469 225.707031 213.992188 226.550781 C 212.847656 229.238281 211.703125 231.921875 210.558594 234.609375 C 210.578125 234.617188 210.59375 234.621094 210.609375 234.632812 C 211.996094 235.265625 213.5 235.828125 214.824219 236.613281 C 215.703125 234.511719 216.585938 232.414062 217.460938 230.3125 C 221.101562 221.605469 225.125 213.105469 229.140625 204.5625 C 232.390625 197.644531 235.640625 190.71875 238.890625 183.800781 C 240.441406 180.492188 242.070312 177.207031 243.523438 173.851562 C 244.25 172.15625 244.902344 170.4375 245.335938 168.652344 Z M 245.335938 168.652344 " fill-opacity="1" fill-rule="nonzero"/></g></g></g></svg>